{
    "accessors": [
        {
            "bufferView": 0,
            "byteOffset": 0,
            "componentType": 5123,
            "count": 756,
            "type": "SCALAR",
            "max": [
                277
            ],
            "min": [
                0
            ]
        },
        {
            "bufferView": 1,
            "byteOffset": 0,
            "componentType": 5126,
            "count": 278,
            "type": "VEC3",
            "max": [
                54.054779052734375,
                169.8115997314453,
                51
            ],
            "min": [
                -55.796630859375,
                0,
                -51
            ],
            "name": "POSITION"
        },
        {
            "bufferView": 1,
            "byteOffset": 12,
            "componentType": 5126,
            "count": 278,
            "type": "VEC2",
            "max": [
                1,
                1
            ],
            "min": [
                0,
                0
            ],
            "name": "TEXCOORD_0"
        },
        {
            "bufferView": 1,
            "byteOffset": 20,
            "componentType": 5126,
            "count": 278,
            "type": "VEC3",
            "max": [
                0.9503132104873657,
                1.0000044107437134,
                0.9990922808647156
            ],
            "min": [
                -0.954203724861145,
                -1.0000044107437134,
                -0.9990922808647156
            ],
            "name": "NORMAL"
        },
        {
            "bufferView": 0,
            "byteOffset": 1512,
            "componentType": 5123,
            "count": 1416,
            "type": "SCALAR",
            "max": [
                943
            ],
            "min": [
                0
            ]
        },
        {
            "bufferView": 2,
            "byteOffset": 0,
            "componentType": 5126,
            "count": 944,
            "type": "VEC3",
            "max": [
                102.24609375,
                215.91796875,
                51
            ],
            "min": [
                -102.24609375,
                0,
                -51
            ],
            "name": "POSITION"
        },
        {
            "bufferView": 2,
            "byteOffset": 12,
            "componentType": 5126,
            "count": 944,
            "type": "VEC2",
            "max": [
                1,
                1
            ],
            "min": [
                0,
                0
            ],
            "name": "TEXCOORD_0"
        },
        {
            "bufferView": 2,
            "byteOffset": 20,
            "componentType": 5126,
            "count": 944,
            "type": "VEC3",
            "max": [
                0.9478021264076233,
                1.0000044107437134,
                1.0000044107437134
            ],
            "min": [
                -0.9516812562942505,
                -1.0000044107437134,
                -1.0000044107437134
            ],
            "name": "NORMAL"
        }
    ],
    "asset": {
        "generator": "Aspose.3D 25.1.0",
        "version": "2.0"
    },
    "buffers": [
        {
            "uri": "data:application/octet-stream;base64,",
            "byteLength": 43460
        }
    ],
    "bufferViews": [
        {
            "buffer": 0,
            "byteOffset": 0,
            "byteLength": 4344,
            "target": 34963
        },
        {
            "buffer": 0,
            "byteOffset": 4348,
            "byteLength": 8896,
            "byteStride": 32,
            "target": 34962
        },
        {
            "buffer": 0,
            "byteOffset": 13248,
            "byteLength": 30208,
            "byteStride": 32,
            "target": 34962
        }
    ],
    "meshes": [
        {
            "primitives": [
                {
                    "attributes": {
                        "POSITION": 1,
                        "TEXCOORD_0": 2,
                        "NORMAL": 3
                    },
                    "indices": 0,
                    "mode": 4
                }
            ],
            "name": ""
        },
        {
            "primitives": [
                {
                    "attributes": {
                        "POSITION": 5,
                        "TEXCOORD_0": 6,
                        "NORMAL": 7
                    },
                    "indices": 4,
                    "mode": 4
                }
            ],
            "name": ""
        }
    ],
    "nodes": [
        {
            "mesh": 0,
            "name": "?????????1"
        },
        {
            "mesh": 1,
            "name": "?????????"
        }
    ],
    "scene": 0,
    "scenes": [
        {
            "nodes": [
                0,
                1
            ]
        }
    ]
}