{
    "accessors": [
        {
            "bufferView": 0,
            "byteOffset": 0,
            "componentType": 5123,
            "count": 6117,
            "type": "SCALAR",
            "max": [
                1020
            ],
            "min": [
                0
            ]
        },
        {
            "bufferView": 1,
            "byteOffset": 0,
            "componentType": 5126,
            "count": 1021,
            "type": "VEC3",
            "max": [
                4.589216232299805,
                10.70210075378418,
                3.4101200103759766
            ],
            "min": [
                -5.054268836975098,
                -4.046634197235107,
                -2.6672980785369873
            ],
            "name": "POSITION"
        }
    ],
    "asset": {
        "generator": "Aspose.3D 25.1.0",
        "version": "2.0"
    },
    "buffers": [
        {
            "uri": "data:application/octet-stream;base64,",
            "byteLength": 24496
        }
    ],
    "bufferViews": [
        {
            "buffer": 0,
            "byteOffset": 0,
            "byteLength": 12236,
            "target": 34963
        },
        {
            "buffer": 0,
            "byteOffset": 12240,
            "byteLength": 12252,
            "byteStride": 12,
            "target": 34962
        }
    ],
    "meshes": [
        {
            "primitives": [
                {
                    "attributes": {
                        "POSITION": 1
                    },
                    "indices": 0,
                    "mode": 4
                }
            ],
            "name": ""
        }
    ],
    "nodes": [
        {
            "mesh": 0,
            "name": "??????????????"
        }
    ],
    "scene": 0,
    "scenes": [
        {
            "nodes": [
                0
            ]
        }
    ]
}